<?xml version="1.0" encoding="UTF-8" standalone="no"?><svg xmlns="http://www.w3.org/2000/svg" xmlns:xlink="http://www.w3.org/1999/xlink" fill="#000000" height="1771.7" preserveAspectRatio="xMidYMid meet" version="1" viewBox="618.6 83.1 879.0 1771.7" width="879" zoomAndPan="magnify"><g clip-rule="evenodd" fill="#ffffff" fill-rule="evenodd" id="change1_6"><path d="M1168.96,83.65c-5.04,1.04-8.9,1.73-9.87,1.9 c-13.68,2.66-27.23,5.98-40.58,10c-13.33,4.01-26.45,8.72-39.38,13.84c-53.27,21.39-99.93,52.68-140.47,90.9 c-29.02,27.36-54.85,58.27-78.08,91.23c-5.35,2.82-12.27,6.85-20.64,11.48c-30.04,16.59-77.18,42.98-124.99,68.12 c-23.14,12.17-46.29,24.3-67.71,34.92c-12.12,6.01-22.76,32.01-26.56,52.57c-2.06,11.1-2.09,20.52-0.86,24.41 c1.89,5.96,6.08,7.81,9.74,7.97c27.89,1.23,54.45-9.89,82.04-11.78c23.82-1.63,48.24,1.87,71.02,8.82 c79.29,24.2,126.86,90.27,144.01,168.87c0.66,3.08,2.85,6.9,8.99,6.09c1.43-0.2,4.56-1.32,8.72-3.43 c13.17-6.67,41.39-23.95,53.47-31.76c2.73-1.77,4.68-3.09,5.59-3.77c4.72-3.54,3.75-8.12,3.65-8.75 c-0.97-5.39,1.58-55.64,20.64-122.17c9.3-32.46,24.06-67.92,41.34-105.83c0.44-0.97,0.91-1.92,1.36-2.88 c25.98-35.77,47.92-74.39,64.94-115.09c19.84-48.85,32.64-92.93,39.55-125.55c5.08-24.04,7.6-41.7,7.98-50.22 c0.03-0.58,0.06-1.11,0.08-1.6C1183.78,91.92,1171.57,83.12,1168.96,83.65z M723.9,460.58c-36.09,0.95-69.04,9.79-86.63,11.72 c0.62-10.11,4.23-26.7,9.87-38.87c2.42-5.22,4.81-9.75,8.09-11.41c50.73-25.89,111.7-59.45,156.71-86.09 c11.72-6.94,22.4-13.34,31.51-19.04c-3.01,4.65-5.98,9.31-8.89,14.02c-8.96,14.57-17.6,29.46-25.59,44.68 c-8.04,15.31-15.44,30.94-21.91,46.91l-12.04,31.5l-3.68,10.44c-0.01,0.05-0.02,0.1-0.03,0.15c-0.4-0.09-0.79-0.18-1.19-0.27 C754.82,460.8,739.06,460.18,723.9,460.58z M844,495.31c-28.57-17.9-48.51-22.44-56.51-23.98c-0.48-0.35-0.96-0.68-1.43-1.01 l4.92-9.84l9.28-21.22c12.27,3.93,35.9,13.53,60.2,30.09c13.79,9.39,27.58,21.1,40.19,34.59c3.07,3.29,5.94,6.79,9.11,10.05 c0.4,0.41,0.81,0.79,1.21,1.17c-2.99,2.16-5.98,4.31-8.99,6.45c-3.95,2.8-8.38,5.04-11.65,8.6c-0.65,0.71-1,1.4-1.36,2.14 c-4.64-4.97-9.12-9.6-13.7-13.7C864.28,508.77,853.6,501.32,844,495.31z M1009.88,487.88c-18.13,60-20.43,108.18-20.03,124.79 c-0.45,0.4-0.93,0.8-1.42,1.15c-10.91,7.58-35.74,23.95-49.04,31.33c-4.8-20.09-12.53-43.24-21.34-63.51 c-5.91-13.6-11.48-26.56-18.6-35.26c1.68-1.92,3.34-4.16,4.88-6.32c2.34-1.39,4.6-2.99,6.92-4.41 c43.54-26.59,82.11-61.06,116.47-98.94C1020.46,454.36,1014.77,471.67,1009.88,487.88z M1146.02,184.2 c-7.3,23.43-16.19,49.96-27.89,77.97c-22.91,55.43-55.26,106.88-94.62,152.41c-29.99,34.7-64.72,64.97-101.47,92.42 c-0.32-0.6-0.65-1.2-1.01-1.79c-2.59-4.21-5.89-7.9-9.13-11.54c-13.13-14.73-28.62-26.54-43.64-36.14 c-25.14-16.08-49.53-25.64-63.32-29.01c6.2-14.98,13.25-29.64,20.9-44.01c7.87-14.78,16.37-29.25,25.19-43.41 c28.67-46.33,62.14-89.56,100.93-126.82c38.62-37.1,82.55-68.34,133.37-89.85c12.4-5.31,25.02-10.14,37.8-14.49 c12.76-4.35,25.68-8.24,38.78-11.38c0.87-0.22,3.71-0.99,7.05-1.93c-0.49,2.19-1.04,4.7-1.72,7.49 C1163.05,121.09,1156.87,149.39,1146.02,184.2z"/><path d="M1043.09,227.87c-18.49-10.82-41.68-7.49-57.72,6.11 c-18.39,15.59-28.06,42.87-20.48,66.02c4.75,14.48,14.88,26.8,29.54,31.85c11.05,3.81,22.88,2.59,33.55-1.98 c10.16-4.35,19.22-11.73,25.38-20.31c5.68-7.88,9.94-17.58,11.95-27.6C1069.52,260.9,1062.11,239,1043.09,227.87z"/></g><g id="change1_1"><path clip-rule="evenodd" d="M814.07,551.6c-0.19-0.27-0.27-0.39-0.03-0.15 C814.09,551.5,814.09,551.55,814.07,551.6L814.07,551.6z M814.07,551.6c0.15,0.22,0.37,0.55,0.54,0.88c-0.22-1.54,0.6-3.09,2.1-3.74 c1.79-0.79,3.88,0.04,4.65,1.83c1.39,0.55,0.58,1.44,1,2.82c0.28,0.93-0.58,1.97-0.87,2.81c-10.82,22.51-20.08,45.23-28.59,68.38 c-5.62,15.32-11.03,30.78-15.67,46.69c-13.65,46.73-22.54,93.88-27.83,141.46c-5.29,47.61-6.95,95.68-5.53,144.28 c5.9,226.81,77.04,432.74,204.54,589.44c116.16,142.75,279.1,244.6,482.08,284.03c16.47,3.2,33.25,5.54,50.17,8.36 c3.35,0.55,6.97,0.35,10.02,1.88c1.15,0.57,1.35,1.27,2.3,2.15c2.68,0.33,4.58,2.78,4.25,5.45c-0.34,2.68-2.78,4.58-5.46,4.25 c-1.14,0.62-1.52,1.23-2.79,1.5c-3.38,0.72-6.88-0.44-10.3-0.82c-17.31-1.91-34.24-5.16-50.95-8.37 c-206.86-39.71-373.08-143.13-491.68-288.34c-129.95-159.11-202.68-368.44-208.99-599.07c-1.19-49.4,0.54-98.25,6.36-146.58 c5.83-48.4,15.74-96.25,30.3-143.65c7.49-24.35,15.91-47.95,26.41-70.7c7-15.14,15.03-29.77,23.41-44.44 C813.65,551.93,814,551.76,814.07,551.6L814.07,551.6z" fill="#ffffff" fill-rule="evenodd"/></g><g id="change1_2"><path clip-rule="evenodd" d="M665.56,757.3c0.74-1.81,2.81-2.68,4.61-1.93 c1.81,0.74,2.68,2.81,1.94,4.61c-3.52,9.26-5.74,19.52-7.47,30.17c-4,24.67-4.77,51.56-7.4,73.93 c-12.16,96.61-8.52,189.19,7.95,279.51c16.52,90.56,45.93,178.92,86.73,266.57c0.97,2.07,0.08,4.54-1.98,5.51 c-2.07,0.97-4.54,0.08-5.51-1.98c-41.9-88.07-72.8-176.86-89.75-268.16c-16.94-91.3-19.93-185.03-7.42-282.72 c2.57-19.26,3.46-41.95,6.84-63.56C656.45,784.28,660.03,769.85,665.56,757.3L665.56,757.3z" fill="#ffffff" fill-rule="evenodd"/></g><g id="change1_3"><path clip-rule="evenodd" d="M836.98,840.16c0.06-0.08,0.14-0.12,0.24-0.11 c0.44,0.04,0.01,0.32-0.39,0.55c0.02-0.15,0.05-0.27,0.09-0.36c-0.13,0.2-0.27,0.4-0.45,0.58c0,0.01-0.01,0.01-0.01,0.01 c0.09-0.06,0.22-0.15,0.36-0.24c-0.1,0.84,0.13,2.5-0.1,4.06c-1.98,13.09-8.39,45.51-8.59,48.54c-1.33,17.07-1.87,34.3-1.77,51.52 c0.1,17.24,0.86,34.49,2.15,51.57c4.09,54.3,14.47,103.99,29.82,152.1c10.91,34.21,24.84,67.39,39.84,101.3 c6.23,14.08,12.39,28.4,19.08,42.76c1.11,2.22,0.21,4.93-2.02,6.04c-2.22,1.11-4.93,0.2-6.04-2.02 c-7.54-14.08-14.93-27.93-21.57-41.95c-16.07-33.95-29.04-68.07-39.95-102.76c-15.39-48.96-25.68-99.51-29.57-154.7 c-1.23-17.33-1.91-34.81-1.94-52.29c-0.03-17.51,0.61-35.01,2.03-52.35c0.28-3.1,6.13-36.61,9.97-49.64 c0.75-2.54,1.43-4.32,1.91-5.09c2.61-4.08,5.86-2.66,6.24-1.86C837.55,836.97,837.78,838.77,836.98,840.16L836.98,840.16z M836.36,840.95c-0.82,0.79-1.94,1.11-2.99,0.95C834.54,842.43,835.61,842.62,836.36,840.95L836.36,840.95z" fill="#ffffff" fill-rule="evenodd"/></g><g id="change1_4"><path clip-rule="evenodd" d="M854.96,1597.14c-0.81-0.01-1.61-0.3-2.23-0.82 c0.37-0.08,0.83-0.21,1.31-0.38c-0.57-0.61-1.09-0.86-1.49-0.53c-0.15,0.12-0.27,0.22-0.38,0.32c-0.19-0.25-0.34-0.53-0.46-0.84 c-0.98-1.96-0.48-3.25-0.37-3.64c0.46-1.62,1.75-2.13,3.17-2.36c0.52-0.09,1.96,0.06,3.51,1.54c1.9,1.82,7.65,9.94,10.25,13.02 l18.86,21.9c9.27,10.35,18.97,20.35,28.92,30.1c9.96,9.76,20.18,19.28,30.56,28.54c25.09,22.36,51.18,43.31,77.77,63.59 c40.02,30.51,81.24,59.39,122.68,88.13c1.86,1.28,2.33,3.82,1.06,5.68c-1.28,1.86-3.82,2.33-5.68,1.05 c-41.83-28.41-83.6-56.79-123.88-87.21c-26.88-20.31-53.05-41.57-78.31-64.11c-10.49-9.37-20.85-18.97-30.88-28.88 c-10.06-9.93-19.8-20.17-29.14-30.74l-18.98-22.62C859.7,1606.66,857.08,1600.33,854.96,1597.14L854.96,1597.14z M852.73,1596.32 c-0.85,0.17-1.24,0.06-0.56-0.59C852.34,1595.95,852.53,1596.15,852.73,1596.32L852.73,1596.32z" fill="#ffffff" fill-rule="evenodd"/></g><g id="change1_5"><path clip-rule="evenodd" d="M1018.11,1527.17c-0.01,0.01-0.01,0.02-0.02,0.03 c-0.22,0.28,0.13,0.61,0.67,0.92c0.13,0.28,0.23,0.57,0.28,0.88c0.01-0.25,0.01-0.5,0.01-0.73c0.83,0.42,1.87,0.76,1.95,0.82 l28.33,25.33c18.86,18.11,38.64,36.27,59.64,52.58c13.95,10.84,28.41,20.92,43.66,29.43c1.9,1.04,2.59,3.43,1.55,5.33 c-1.04,1.9-3.43,2.6-5.33,1.56c-19.65-10.59-38.2-23.52-55.74-37.8c-17.43-14.17-33.83-29.65-49.68-44.97l-26.67-25.63 c-0.15-0.12-2.4-1.59-3.2-2.28c-2.01-1.74-1.47-3.9-1.24-4.42c0.77-1.79,2.85-2.63,4.65-1.86 C1017.4,1526.56,1017.79,1526.84,1018.11,1527.17L1018.11,1527.17z M1018.11,1527.17c0.69-0.83,0.9,0,0.93,1.1 c-0.1-0.05-0.2-0.11-0.29-0.15C1018.59,1527.78,1018.38,1527.45,1018.11,1527.17L1018.11,1527.17z" fill="#ffffff" fill-rule="evenodd"/></g></svg>