<?xml version="1.0" encoding="UTF-8"?><svg xmlns="http://www.w3.org/2000/svg" xmlns:xlink="http://www.w3.org/1999/xlink" height="534.1" preserveAspectRatio="xMidYMid meet" version="1.0" viewBox="-3.6 -0.5 523.3 534.1" width="523.3" zoomAndPan="magnify"><g id="change1_1"><path d="M518.609,404.224c1.149-19.268-7.066-35.899-23.758-48.095c-20.24-14.794-52.34-17.554-92.82-7.973 c-24.963,5.907-46.132,14.862-53.031,17.938l0.131-99.802c9.263-0.265,17.14-3.242,19.312-4.141 c4.442,1.314,33.646,9.955,46.558,13.829c6.314,1.895,16.001,3.751,26.109,3.751c9.603,0,19.588-1.675,27.422-6.588 c8.148-5.112,13.141-13.078,14.846-23.683c1.682-10.499-1.236-20.836-8.683-30.721c-24.883-33.048-92.824-53.431-133.363-60.823 c4.836-1.775,9.375-5.025,12.953-9.525c5.933-7.462,7.515-16.173,4.125-22.73c-1.578-3.055-3.654-5.319-6.135-6.871 c2.878-3.793,4.606-8.506,4.606-13.635c0-7.593-3.756-14.295-9.499-18.394c7.147-4.878,11.843-13.084,11.843-22.391 c0-14.964-12.131-27.096-27.095-27.096c-0.09,0-0.177,0.013-0.267,0.014c-0.025-0.933-0.05-1.867-0.147-2.811 c-2.084-20.225-20.169-34.93-40.394-32.846c-9.22,0.95-17.266,5.249-23.125,11.536C261.579,5.128,251.551,0,240.324,0 c-19.571,0-35.465,15.588-36.035,35.021c-6.258-0.633-12.762,0.561-18.667,3.867c-15.292,8.561-20.749,27.899-12.187,43.191 c1.257,2.246,2.769,4.251,4.445,6.06c-5.17,4.142-8.489,10.498-8.489,17.638c0,6.481,2.743,12.309,7.113,16.43 c-1.748,1.549-3.205,3.511-4.277,5.984c-3.005,6.927-0.886,15.727,5.53,22.964c2.473,2.79,5.772,5.414,9.587,7.26 c-42.973,4.466-115.718,25.08-157.58,68.163c-19.436,20.001-17.591,41.685-10.107,54.178c6.416,10.704,17.115,16.55,29.369,16.55 c3.804,0,7.759-0.565,11.779-1.721c26.281-7.557,37.341-11.414,40.05-12.396c1.875,0.876,7.269,3.06,12.523,2.472 c-6.357,10.72-20.595,38.883-21.721,77.381c-31.906-1.301-57.091,6.148-74.88,22.121c-15.303,13.742-20.363,32.061-14.25,51.584 c10.689,34.133,56.86,72.998,135.967,83.329v0.675c0,7.108,5.785,12.893,12.894,12.893h328.445c7.111,0,12.896-5.785,12.896-12.893 v-2.114c0-7.108-5.785-12.893-12.896-12.893h-0.636v-2.666c0-3.993-3.251-7.244-7.244-7.244h-5.823V480.66 C490.93,466.372,516.723,435.785,518.609,404.224z M128.199,289.894c4.141,2.421,8.367,4.166,11.981,4.166 c0.826,0,1.624-0.09,2.378-0.284c2.405-0.623,4.012-1.843,4.781-3.632c0.249-0.575,0.384-1.162,0.441-1.733 c3.459,2.302,8.749,4.919,13.14,3.279l0.883,85.738c-6.949-2.644-28.763-10.291-55.243-13.227 C108.143,324.062,124.922,295.171,128.199,289.894z" fill="#010043"/></g><g id="change2_1"><path d="M196.277,129.871c0.207,9.57,2.484,18.756,6.495,27.14c-0.866,0.224-1.728,0.416-2.577,0.515 c-0.559,0.016-1.152,0.047-1.729,0.071c-7.47,0.185-14.11-3.982-18.234-8.635c-5.47-6.17-7.421-13.808-4.973-19.457 c0.956-2.204,2.269-3.896,3.853-5.168c3.656,2.543,8.091,4.043,12.882,4.043c1.451,0,2.866-0.15,4.241-0.411L196.277,129.871z M269.226,194.597l-5.249,0.113c-0.491,0.01-0.981,0.016-1.472,0.016c-7.88,0-15.539-1.434-22.746-4.072 c3.828,4.002,11.672,9.528,25.316,8.364c10.446-0.889,16.142-4.024,19.102-6.507C279.336,193.737,274.342,194.486,269.226,194.597z M472.055,220.725c-10.359-13.758-29.698-25.823-51.918-35.621c-7.03,9.502-10.936,16.631-12.215,26.944 c12.911,0.625,24.572,1.535,31.213,2.863c0.897,0.179,1.478,1.049,1.298,1.945c-0.181,0.899-1.062,1.474-1.943,1.296 c-20.605-4.119-93.213-4.167-93.943-4.167c-0.126,0-0.249-0.015-0.371-0.042c-18.866-4.353-33.972-2.954-45.758,4.281 c-0.198,0.213-0.42,0.349-0.694,0.434c-3.815,2.444-7.281,5.503-10.4,9.205c-19.081,22.642-16.408,30.639-15.136,32.55 c1.802,2.704,4.419,1.977,5.47,1.539c7.921-17.943,24.163-31.701,28.999-35.519c0.713-0.563,1.753-0.444,2.321,0.274 c0.565,0.715,0.442,1.754-0.274,2.321c-4.732,3.735-20.748,17.28-28.263,34.782c-0.109,0.302-2.576,7.443,1.425,9.596 c4.897,2.644,10.133-2.463,10.185-2.515c0.008-0.008,0.02-0.006,0.028-0.014c0.021-0.137,0.03-0.276,0.088-0.409 c4.868-11.161,13.829-20.868,23.32-31.144l3.112-3.378c0.62-0.671,1.669-0.713,2.334-0.102c0.671,0.617,0.717,1.662,0.1,2.335 l-3.118,3.386c-9.294,10.065-18.074,19.573-22.719,30.226c-0.078,0.177-0.23,0.283-0.355,0.417c-0.008,0.088,0,0.176-0.023,0.265 c-0.181,0.752-0.878,4.613,3.538,5.943c3.965,1.168,10.658-3.047,13.861-5.486c0.031-0.091,0.039-0.186,0.087-0.273 c7.46-13.367,19.665-27.66,19.788-27.802c0.6-0.696,1.643-0.773,2.331-0.179c0.694,0.594,0.775,1.637,0.181,2.329 c-0.119,0.136-11.436,13.406-18.773,26.156c0.064,0.342,0.03,0.705-0.134,1.035c-0.242,0.504-0.759,2.066-0.21,3.131 c0.384,0.746,1.307,1.253,2.747,1.508c6.866,1.13,20.692-14.948,27.742-25.427c0.513-0.759,1.543-0.952,2.295-0.45 c0.755,0.51,0.959,1.537,0.449,2.294c-0.596,0.888-2.614,3.839-5.45,7.481c12.27,1.466,24.278-3.787,24.402-3.844 c0.362-0.16,0.775-0.186,1.143-0.076c0,0,33.142,9.802,47.139,14.003c1.298,0.384,31.932,9.374,50.826-2.476 c7.305-4.581,11.792-11.782,13.335-21.404C481.652,239.359,478.94,229.867,472.055,220.725z M328.361,155.597 c9.807,2.495,18.697-3.43,23.336-9.263c5.113-6.43,6.559-13.771,3.777-19.157c-1.388-2.689-3.188-4.664-5.368-5.898 c-4.078,4.003-9.661,6.478-15.826,6.478c-0.08,0-0.157-0.011-0.237-0.012c0.087,9.754-1.962,19.191-5.874,27.84 C328.233,155.595,328.295,155.58,328.361,155.597z M263.906,191.404c-16.907,0.405-32.774-5.846-44.922-17.48 c-12.149-11.635-19.039-27.306-19.402-44.124l-0.059-2.732c8.776-3.105,15.074-11.452,15.074-21.291c0-2.021-0.291-3.97-0.788-5.834 c10.976-0.687,19.889-8.894,21.659-19.541c4.694,4.655,11.152,7.533,18.285,7.533c11.199,0,20.714-7.102,24.362-17.036 c0.5,0.26,1.017,0.488,1.529,0.726c-0.195,1.195-0.323,2.413-0.323,3.663c0,12.483,10.12,22.603,22.603,22.603 c4.727,0,9.111-1.455,12.739-3.936c-1.891,3.304-2.987,7.12-2.987,11.2c0,11.278,8.269,20.6,19.07,22.3 c0.235,16.638-5.943,32.404-17.467,44.435c-11.637,12.149-27.306,19.039-44.124,19.402L263.906,191.404z M298.267,144.913 c0.095-8.32-3.348-15.105-7.692-15.155c-4.344-0.05-7.942,6.654-8.038,14.974c-0.095,8.32,3.348,15.105,7.692,15.155 C294.573,159.937,298.172,153.233,298.267,144.913z M280.408,121.998c0.313,0.502,0.852,0.778,1.404,0.778 c0.3,0,0.6-0.081,0.872-0.249c0.077-0.052,8.303-5.012,20.401-1.286c0.878,0.266,1.798-0.223,2.066-1.094 c0.271-0.872-0.22-1.796-1.091-2.066c-13.622-4.193-22.751,1.403-23.129,1.645C280.16,120.21,279.927,121.225,280.408,121.998z M267.535,156.13c2.047,1.672,3.099,3.18,3.131,4.481c0.029,1.267-0.907,2.736-2.863,4.489c-0.678,0.609-0.736,1.653-0.126,2.334 c0.326,0.363,0.778,0.549,1.23,0.549c0.394,0,0.788-0.139,1.104-0.423c1.733-1.553,4.029-3.972,3.958-7.024 c-0.052-2.342-1.472-4.621-4.342-6.965c-0.704-0.573-1.746-0.473-2.324,0.234C266.724,154.511,266.828,155.552,267.535,156.13z M229.419,120.703c12.357-2.741,20.156,2.863,20.233,2.921c0.295,0.216,0.639,0.321,0.981,0.321c0.505,0,1.006-0.231,1.328-0.667 c0.542-0.733,0.394-1.763-0.337-2.308c-0.362-0.27-9.029-6.577-22.922-3.496c-0.891,0.198-1.453,1.081-1.256,1.972 C227.644,120.335,228.517,120.892,229.419,120.703z M248.688,144.343c0.096-8.32-3.348-15.105-7.692-15.154 c-4.344-0.05-7.942,6.654-8.038,14.974c-0.095,8.32,3.348,15.104,7.692,15.155C244.993,159.367,248.592,152.663,248.688,144.343z M266.059,180c0.691,0,1.401-0.029,2.134-0.092c7.751-0.663,13.406-6.805,13.642-7.066c0.613-0.676,0.562-1.721-0.113-2.334 c-0.671-0.609-1.721-0.563-2.334,0.113c-0.048,0.055-5.003,5.439-11.479,5.995c-10.344,0.867-15.787-5.915-16.011-6.206 c-0.563-0.717-1.596-0.854-2.318-0.292c-0.72,0.557-0.855,1.59-0.3,2.311C249.532,172.756,255.236,180,266.059,180z M169.555,239.054c-13.74-12.672-30.355-9.981-51.386-6.58c-3.238,0.525-6.566,1.062-9.984,1.559 c-0.11,0.016-0.221,0.023-0.337,0.015c-0.063-0.003-2.807-0.15-8.74-0.102c-0.067,0.021-0.121,0.064-0.192,0.077 c-0.102,0.019-0.203,0.027-0.303,0.027c-0.19,0-0.375-0.035-0.549-0.097c-8.656,0.101-23.454,0.613-45.982,2.426 c-0.91,0.06-1.708-0.605-1.78-1.516c-0.073-0.91,0.605-1.706,1.516-1.78c21.499-1.731,35.881-2.289,44.722-2.429 c-2.452-11.325-7.717-22.219-17.396-35.921c-17.482,9.257-33.809,20.566-47.01,34.151c-18.129,18.655-16.523,38.688-9.641,50.175 c7.599,12.683,21.933,17.79,37.399,13.351c30.04-8.638,40.368-12.522,40.47-12.56c0.441-0.168,0.936-0.139,1.354,0.084 c0.082,0.042,8.259,4.271,13.981,1.811c0.05-0.022,0.102-0.016,0.153-0.033c0.151-0.226,0.273-0.406,0.363-0.536 c-3.337-2.84-5.782-5.226-6.476-5.917c-0.646-0.646-0.647-1.692-0.003-2.337c0.644-0.649,1.69-0.646,2.337-0.006 c5.612,5.594,21.881,19.656,29.661,17.657c1.357-0.349,2.221-0.93,2.566-1.724c0.537-1.232-0.113-2.944-0.436-3.562 c-8.232-12.337-24.047-23.678-24.207-23.791c-0.744-0.529-0.917-1.561-0.387-2.305c0.526-0.746,1.557-0.917,2.305-0.387 c0.668,0.475,16.359,11.736,24.945,24.51c2.415,2.099,9.146,6.884,13.283,5.27c4.071-1.575,3.896-4.356,3.769-5.102 c-5.821-10.835-17.853-23.765-30.735-33.003c-0.741-0.531-0.912-1.564-0.379-2.306c0.531-0.742,1.561-0.915,2.306-0.379 c13.27,9.517,25.698,22.902,31.736,34.157c0.411,0.533,5.142,6.424,11.241,3.125c3.767-2.037,1.699-9.719,1.37-10.848 c-7.214-13.704-19.984-26.352-33.363-33.026c-0.817-0.407-1.149-1.399-0.741-2.216c0.408-0.813,1.399-1.149,2.216-0.741 c13.819,6.892,26.989,19.88,34.551,33.989c1.065,0.353,3.747,0.893,5.343-1.959C188.04,268.619,191.549,259.334,169.555,239.054z" fill="#f4d1c5"/></g><g id="change3_1"><path d="M290.699,475.648c0.178,0.077,0.364,0.102,0.549,0.113v20.4l-51.947-0.329c0.913-1.142,1.452-2.504,1.452-3.97 c0-1.922-0.928-3.661-2.417-4.958c1.488-1.297,2.417-3.036,2.417-4.958c0-2.922-2.122-5.432-5.154-6.573v-7.511 c5.656-2.165,10.734-5.33,15.097-9.223L290.699,475.648z M200.561,475.372v-7.511c-18.834-7.208-31.427-25.326-31.551-45.507 l-59.918-26.244c12.936,59.185,70.26,100.172,70.895,100.619c0.101,0.071,0.165,0.17,0.245,0.258h17.424 c0.059-0.054,0.108-0.115,0.168-0.168c-1.488-1.297-2.417-3.036-2.417-4.958c0-1.922,0.928-3.661,2.417-4.958 c-1.488-1.297-2.417-3.036-2.417-4.958C195.407,479.023,197.529,476.514,200.561,475.372z M151.389,505.746h14.405v-1.337 c-7.196-5.314-69.842-53.67-73.963-127.252c-0.206-3.683-0.281-7.286-0.249-10.81c-31.048-1.24-55.46,5.893-72.597,21.278 C4.703,400.45-0.021,417.546,5.683,435.762c10.361,33.097,55.489,70.822,133.001,81.006 C139.599,510.55,144.92,505.746,151.389,505.746z M492.901,358.795c-47.112-34.434-143.652,10.789-144.833,11.353 c-28.567,15.917-58.018,25.068-87.576,27.322c4.213,7.239,6.668,15.622,6.668,24.585c0,12.989-5.19,25.126-13.873,34.093 l10.65,4.529c11.721-8.037,151.115-94.318,157.204-98.086c0.768-0.481,1.792-0.242,2.273,0.536c0.481,0.775,0.242,1.795-0.536,2.273 c-49.141,30.416-139.735,86.637-155.308,96.823l24.42,10.384c0.519,0.219,0.837,0.679,0.944,1.191h12.27l-0.266-6.13 c-0.019-0.449,0.148-0.888,0.458-1.214c0.313-0.326,0.742-0.51,1.194-0.51h16.479l20.547-8.283c0.504-0.207,1.088-0.145,1.54,0.165 c0.455,0.307,0.73,0.82,0.73,1.369v14.604h10.381c11.288-0.393,23.235,2.172,27.406,4.277h80.348 c24.169-13.729,49.46-43.46,51.285-74.048C516.389,385.937,508.641,370.297,492.901,358.795z M106.643,378.222 c0.248,4.744,0.835,9.386,1.664,13.937l60.855,26.654c0.768-11.663,5.608-22.207,13.134-30.244 c-12.313-3.694-19.04-6.972-19.509-7.205c-0.73-0.302-25.183-10.346-56.313-13.842C106.411,371.014,106.453,374.577,106.643,378.222 z" fill="#4ebeea"/></g><g id="change4_1"><path d="M294.553,477.103h60.116v19.32h-21.897l-38.22-0.242V477.103z M342.58,473.798v-12.157l-18.574,7.489 c-0.194,0.077-0.404,0.119-0.617,0.119h-15.072l0.197,4.548H342.58z M250.999,222.647c0,3.318,2.7,6.019,6.019,6.019 c3.32,0,6.02-2.7,6.02-6.019s-2.7-6.019-6.02-6.019C253.699,216.628,250.999,219.329,250.999,222.647z M250.18,216.357 c1.705-1.852,4.127-3.034,6.837-3.034c1.005,0,1.954,0.201,2.861,0.496c-3.872-3.065-13.422-9.291-27.379-9.33l-0.928,1.393 l18.584,10.454C250.166,216.342,250.171,216.351,250.18,216.357z M249.77,228.441c-1.279-1.596-2.077-3.594-2.077-5.794 c0-1.243,0.255-2.425,0.698-3.511l-18.657-10.496l-1.172,1.758C230.332,213.512,237.396,224.606,249.77,228.441z M384.933,481.38 v17.025v7.205h77.893v-8.122V481.38H384.933z M263.855,422.055c0,19.297-12.242,36.616-30.462,43.098 c-0.659,0.232-1.099,0.855-1.099,1.556v8.026c-0.108-0.003-0.209-0.026-0.318-0.026h-27.792c-0.109,0-0.21,0.023-0.318,0.026v-8.026 c0-0.7-0.441-1.323-1.099-1.556c-18.221-6.482-30.463-23.8-30.463-43.098c0-25.24,20.535-45.774,45.775-45.774 S263.855,396.815,263.855,422.055z M180.568,423.708c0.914,0,1.653-0.739,1.653-1.653c0-2.427,0.245-4.858,0.73-7.218 c0.184-0.894-0.392-1.769-1.286-1.953c-0.905-0.181-1.769,0.394-1.951,1.288c-0.529,2.579-0.797,5.233-0.797,7.883 C178.915,422.969,179.654,423.708,180.568,423.708z M206.089,455.808c-10.23-3.638-18.18-11.602-21.817-21.847 c-0.305-0.862-1.254-1.311-2.11-1.007c-0.86,0.307-1.311,1.253-1.005,2.111c3.97,11.188,12.654,19.885,23.825,23.855 c0.182,0.068,0.37,0.097,0.554,0.097c0.68,0,1.317-0.423,1.558-1.098C207.398,457.057,206.949,456.111,206.089,455.808z" fill="#fff"/></g><g id="change5_1"><path d="M117.641,229.21c-3.17,0.513-6.425,1.041-9.768,1.529c-0.683-0.036-3.215-0.143-7.958-0.119 c-2.463-11.914-7.85-23.243-17.815-37.416c40.946-20.99,87.562-30.902,115.225-32.261c0.218,0.006,0.429,0.045,0.648,0.045 c0.629,0,1.274-0.082,1.914-0.137c1.664-0.051,3.271-0.078,4.773-0.063c3.178,5.671,7.211,10.902,12.038,15.526 c5.123,4.907,10.913,8.839,17.121,11.834c0.027,0.076,0.029,0.155,0.068,0.228c0.324,0.612,7.733,14.108,27.54,14.108 c1.256,0,2.57-0.055,3.925-0.171c18.926-1.609,23.957-10.216,24.627-11.548c9.628-3.41,18.417-8.995,25.688-16.586 c4.401-4.597,8.034-9.727,10.904-15.214c24.905,3.075,60.064,11.825,90.462,24.789c-7.147,9.736-11.125,17.207-12.427,28.144 c-26.41-1.165-56.629-1.213-59.873-1.215c-19.643-4.505-35.449-2.988-47.885,4.607c-18.116-6.077-29.986-3.728-33.375-2.792 c-2.899-2.624-14.047-11.515-31.887-11.304c-0.544,0.008-1.047,0.284-1.349,0.736l-4.978,7.466 c-0.326,0.491-0.368,1.117-0.108,1.645c0.35,0.716,8.664,17.203,25.987,21.176c1.16,3.758,6.071,17.605,16.795,24.009 c-0.092,2.64,0.548,4.593,1.502,6.025c2.03,3.047,4.836,3.659,7.137,3.388c-0.581,3.27-0.639,8.333,3.722,10.683 c4.348,2.334,8.558,0.749,11.23-0.897c0.465,2.418,2.027,5.003,5.878,6.159c4.71,1.414,10.856-1.905,14.601-4.422 c0.084,0.546,0.249,1.107,0.526,1.653c0.875,1.733,2.602,2.834,5.126,3.28c0.42,0.074,0.846,0.11,1.281,0.11 c6.874,0,15.654-8.873,21.934-16.489c0.045,0.012,0.08,0.041,0.126,0.049c1.621,0.28,3.236,0.44,4.828,0.514l-0.133,101.392 c-28.455,15.724-57.765,24.699-87.15,26.669c-8.855-12.884-23.683-21.359-40.465-21.359c-12.762,0-24.365,4.937-33.103,12.948 c-10.803-3.133-17.601-6.079-19.855-7.118l-0.918-89.064c1.129-0.986,1.877-2.082,2.275-3.169c3.042,2.373,7.71,4.184,12.833,1.407 c4.576-2.473,4.235-8.583,3.569-12.176c2.386,0.19,5.263-0.6,7.119-3.916c1.172-2.095,3.274-8.577-4.786-20.297 c7.951-1.592,16.951-1.377,17.102-1.365l17.358,1.24c0.04,0.003,0.081,0.005,0.119,0.005c0.859,0,1.585-0.665,1.646-1.535 c0.066-0.91-0.62-1.701-1.53-1.766l-16.022-1.144l-0.183-2.01l16.279,1.163c0.04,0.003,0.081,0.005,0.119,0.005 c0.859,0,1.585-0.665,1.646-1.535c0.066-0.91-0.62-1.701-1.53-1.766l-16.818-1.201l-0.144-1.591l15.795,1.108 c0.04,0.003,0.079,0.005,0.118,0.005c0.86,0,1.587-0.667,1.646-1.537c0.065-0.91-0.621-1.701-1.532-1.764l-17.714-1.243 c-14.213-1.634-24.798,1.16-27.628,2.027c-0.712-0.687-1.378-1.355-2.148-2.065C156.87,222.863,138.69,225.802,117.641,229.21z M381.627,496.732v-15.966c-3.605-1.544-13.493-3.81-23.652-3.694v19.511L381.627,496.732z M265.711,225.947 c-0.26,0.681-0.574,1.334-0.978,1.928c1.526,6.491,7.247,10.76,9.433,12.185c2.247-3.619,5.252-7.765,9.089-12.448 C272.894,225.305,267.942,225.493,265.711,225.947z M479.834,509.051H151.389c-5.288,0-9.589,4.3-9.589,9.587v2.114 c0,5.288,4.301,9.587,9.589,9.587h328.445c5.288,0,9.591-4.3,9.591-9.587v-2.114C489.425,513.351,485.122,509.051,479.834,509.051z M204.184,487.93c-2.967,0-5.472,1.801-5.472,3.932c0,1.294,0.932,2.46,2.322,3.181c0.981-0.313,2.036-0.502,3.149-0.502h27.792 c1.113,0,2.169,0.189,3.149,0.502c1.391-0.721,2.322-1.887,2.322-3.181c0-2.13-2.505-3.932-5.471-3.932H204.184z M231.976,478.014 h-27.792c-2.967,0-5.472,1.801-5.472,3.932c0,1.294,0.932,2.46,2.322,3.181c0.981-0.313,2.036-0.502,3.149-0.502h27.792 c1.113,0,2.169,0.189,3.149,0.502c1.391-0.721,2.322-1.887,2.322-3.181C237.447,479.815,234.943,478.014,231.976,478.014z M235.942,499.116l-0.14-0.001l-1.387-0.822c-0.742-0.276-1.565-0.447-2.44-0.447h-27.792c-1.682,0-3.197,0.59-4.21,1.48 c-0.135,0.294-0.363,0.522-0.635,0.692c-0.387,0.535-0.627,1.129-0.627,1.76c0,2.131,2.505,3.932,5.472,3.932h27.792 c2.967,0,5.472-1.801,5.472-3.932C237.448,500.76,236.864,499.824,235.942,499.116z" fill="#f4b47e"/></g></svg>