<?xml version="1.0" encoding="UTF-8"?><svg xmlns="http://www.w3.org/2000/svg" xmlns:xlink="http://www.w3.org/1999/xlink" height="59.0" preserveAspectRatio="xMidYMid meet" version="1.0" viewBox="3.0 3.0 58.0 59.0" width="58.0" zoomAndPan="magnify"><g><g id="change1_1"><path d="M 26.976562 51.972656 C 26.722656 47.320312 24.128906 43.085938 20.054688 40.757812 L 20 40.726562 L 12.988281 32.933594 C 11.9375 31.765625 10.148438 31.699219 9 32.742188 L 9 18 C 9 16.34375 7.65625 15 6 15 C 4.34375 15 3 16.34375 3 18 L 3 36.925781 C 3 38.285156 3.347656 39.625 4.007812 40.8125 L 13 57 L 13 62 L 27 62 L 27 52 L 26.976562 51.972656" fill="#fbc197"/></g><g id="change2_1"><path d="M 16 12 L 32 3 L 48 12 L 32 21 L 16 12" fill="#f7ac36"/></g><g id="change3_1"><path d="M 16 29.742188 L 32 39 L 32 21 L 16 12 L 16 29.742188" fill="#f68b23"/></g><g id="change4_1"><path d="M 32 21 L 32 39 L 48 29.742188 L 48 12 L 32 21" fill="#f35f19"/></g><g id="change5_1"><path d="M 45 29 L 43 29 L 43 27 L 45 27 L 45 29" fill="#e94240"/></g><g id="change5_2"><path d="M 41 31 L 39 31 L 39 29 L 41 29 L 41 31" fill="#e94240"/></g><g id="change5_3"><path d="M 37 33 L 35 33 L 35 31 L 37 31 L 37 33" fill="#e94240"/></g><g id="change6_1"><path d="M 17 46.898438 C 16.726562 46.898438 16.457031 46.789062 16.261719 46.574219 L 8.066406 37.558594 C 6.695312 36.050781 6.75 33.734375 8.191406 32.292969 C 8.582031 31.902344 9.214844 31.902344 9.605469 32.292969 C 9.996094 32.683594 9.996094 33.316406 9.605469 33.707031 C 8.917969 34.394531 8.894531 35.496094 9.546875 36.214844 L 17.738281 45.226562 C 18.109375 45.636719 18.082031 46.269531 17.671875 46.640625 C 17.480469 46.8125 17.238281 46.898438 17 46.898438" fill="#f4ad78"/></g><g id="change1_2"><path d="M 37.023438 51.972656 C 37.277344 47.320312 39.871094 43.085938 43.945312 40.757812 L 44 40.726562 L 51.011719 32.933594 C 52.0625 31.765625 53.851562 31.695312 55 32.742188 L 55 18 C 55 16.34375 56.34375 15 58 15 C 59.65625 15 61 16.34375 61 18 L 61 36.925781 C 61 38.285156 60.652344 39.625 59.992188 40.8125 L 51 57 L 51 62 L 37 62 L 37 52 L 37.023438 51.972656" fill="#fbc197"/></g><g id="change6_2"><path d="M 47 46.898438 C 47.273438 46.898438 47.542969 46.789062 47.738281 46.574219 L 55.933594 37.558594 C 57.304688 36.050781 57.25 33.734375 55.808594 32.292969 C 55.417969 31.902344 54.785156 31.902344 54.394531 32.292969 C 54.003906 32.683594 54.003906 33.316406 54.394531 33.707031 C 55.082031 34.394531 55.105469 35.496094 54.453125 36.214844 L 46.261719 45.226562 C 45.890625 45.636719 45.917969 46.269531 46.328125 46.640625 C 46.519531 46.8125 46.761719 46.898438 47 46.898438" fill="#f4ad78"/></g><g id="change4_2"><path d="M 38.515625 6.664062 L 22.445312 15.625 L 24.488281 16.773438 L 40.558594 7.816406 L 38.515625 6.664062" fill="#f35f19"/></g><g id="change7_1"><path d="M 24.984375 45.566406 C 22.101562 53.765625 18.234375 59.417969 15.179688 62 L 27 62 L 27 52 L 26.976562 51.972656 C 26.847656 49.671875 26.148438 47.480469 24.984375 45.566406" fill="#f6b787"/></g><g id="change7_2"><path d="M 37 58.527344 L 37 62 L 51 62 L 51 57 L 59.992188 40.8125 C 60.324219 40.214844 60.578125 39.582031 60.746094 38.925781 C 52.664062 50.261719 40.523438 56.792969 37 58.527344" fill="#f6b787"/></g></g></svg>