<?xml version="1.0" encoding="UTF-8" standalone="no"?><svg xmlns="http://www.w3.org/2000/svg" xmlns:xlink="http://www.w3.org/1999/xlink" fill="#f9f9f9" height="504" preserveAspectRatio="xMidYMid meet" version="1" viewBox="-0.5 0.0 504.9 504.0" width="504.9" zoomAndPan="magnify"><g id="change1_1"><path d="M503.027,220.927l-76.273-88.316V4c0-2.209-1.791-4-4-4h-89.442c-1.709,0-3.229,1.086-3.784,2.702 c-0.554,1.616-0.021,3.406,1.328,4.455l32.531,25.302l-32.531,25.302c-1.349,1.049-1.882,2.839-1.328,4.455 c0.555,1.616,2.075,2.702,3.784,2.702h85.442v67.365L300.445,235.659c6.673-13.109,10.441-27.936,10.441-43.626 c0-53.206-43.286-96.492-96.492-96.492s-96.492,43.286-96.492,96.492c0,14.066,3.027,27.437,8.461,39.5l-14.41,10.16 c-0.679-1.955-1.625-3.82-2.838-5.54c-3.431-4.867-8.553-8.107-14.421-9.122c-5.871-1.017-11.781,0.316-16.648,3.747 c-4.867,3.432-8.106,8.554-9.122,14.422c-1.015,5.867,0.316,11.779,3.748,16.646c2.014,2.858,4.667,5.167,7.706,6.794 c-4.136,7.31-5.933,15.869-4.838,24.53l15.787,124.848c0.005,0.043,0.012,0.086,0.019,0.129L1.368,496.988 c-1.664,1.453-1.834,3.98-0.38,5.644C1.779,503.537,2.887,504,4.002,504c0.934,0,1.872-0.325,2.63-0.988l415.725-363.254 l74.616,86.397c1.443,1.671,3.969,1.856,5.642,0.413C504.287,225.124,504.471,222.599,503.027,220.927z M79.21,257.236 c-2.2-3.121-3.053-6.911-2.402-10.674s2.728-7.046,5.848-9.246c3.121-2.2,6.911-3.055,10.674-2.403 c3.763,0.65,7.046,2.728,9.247,5.85c1.242,1.76,2.058,3.75,2.412,5.841l-19.93,15.443C82.727,261.003,80.7,259.349,79.21,257.236z M118.46,394.675l-4.675-52.202c-0.236-2.644,0.598-5.196,2.35-7.189s4.177-3.148,6.829-3.253l13.495-0.531 c1.941-0.077,3.61,1.375,3.807,3.305l3.825,37.475L118.46,394.675z M151.474,365.828l-3.25-31.836 c-0.625-6.122-5.932-10.72-12.08-10.486l-13.495,0.531c-4.863,0.191-9.311,2.31-12.523,5.966 c-3.213,3.654-4.743,8.337-4.309,13.184l5.194,57.998l-12.382,10.819L83.476,292.166c-1.476-11.671,3.58-23.132,13.195-29.909 l33.326-23.497c2.005,3.608,4.234,7.074,6.67,10.38l-16.763,11.819c-7.588,5.351-11.111,14.982-8.766,23.967l3.399,13.02 c1.724,6.605,8.136,11.025,14.93,10.309l13.079-1.405c4.284-0.466,8.486,0.78,11.833,3.492c3.347,2.713,5.432,6.567,5.869,10.854 l3.464,33.94L151.474,365.828z M141.681,255.394c1.831,2.099,3.753,4.116,5.756,6.05l-28.808,20.311 c-0.946-5.433,1.328-11.045,5.884-14.257L141.681,255.394z M171.095,348.683l-2.889-28.301c-0.656-6.42-3.778-12.193-8.792-16.257 c-5.014-4.063-11.309-5.919-17.724-5.231l-13.08,1.405c-2.878,0.315-5.603-1.57-6.335-4.373l-1.533-5.871l32.845-23.158 c16.607,13.514,37.775,21.628,60.805,21.628c11.087,0,21.741-1.886,31.665-5.343L171.095,348.683z M214.394,280.524 c-48.794,0-88.492-39.697-88.492-88.491c0-48.795,39.697-88.492,88.492-88.492s88.492,39.697,88.492,88.492 C302.885,240.827,263.188,280.524,214.394,280.524z M418.754,56.918H344.97l27.388-21.302c0.975-0.758,1.544-1.923,1.544-3.157 s-0.57-2.399-1.544-3.157L344.97,8h73.784V56.918z"/><path d="M57.249,219.22c-10.526-14.093-25.958-22.282-36.7-19.468c-2.226,0.582-4.242,1.667-5.991,3.223 c-3.631,3.227-5.05,7.95-3.797,12.634c0.605,2.264,1.694,4.275,3.236,5.98c4.409,4.88,12.339,7.423,21.524,7.423 c6.285,0,13.158-1.191,19.89-3.64c1.189-0.432,2.104-1.401,2.466-2.614C58.239,221.546,58.006,220.233,57.249,219.22z M19.931,216.225c-0.683-0.755-1.168-1.658-1.442-2.684c-0.203-4.44,2.438-6.072,6.469-6.332c5.828,0,14.61,4.257,22.152,12.335 C34.74,222.574,23.788,220.494,19.931,216.225z"/><path d="M56.571,243.858c-0.536-1.146-1.583-1.972-2.823-2.225c-17.229-3.519-34.203,0.63-40.356,9.873 c-1.273,1.916-2.057,4.066-2.33,6.391c-0.564,4.824,1.518,9.295,5.568,11.959c2.71,1.66,5.428,2.33,8.15,2.408 c10.714,0,23.759-10.106,31.688-24.813C57.069,246.337,57.107,245.005,56.571,243.858z M23.89,264.218 c-4.379,0.045-6.336-4.92-3.835-8.28c2.792-4.194,11.162-7.536,21.66-7.536c1.519,0,3.083,0.07,4.68,0.218 C39.171,259.108,29.613,264.831,23.89,264.218z"/></g></svg>