<?xml version="1.0" encoding="UTF-8"?><svg xmlns="http://www.w3.org/2000/svg" xmlns:xlink="http://www.w3.org/1999/xlink" height="541.3" preserveAspectRatio="xMidYMid meet" version="1.0" viewBox="-0.3 -2.1 483.6 541.3" width="483.6" zoomAndPan="magnify"><g id="change1_1"><path d="M476.71,249.412h-33.619v-6.172c0-0.069-0.026-0.129-0.039-0.194v-81.733c0-4.276-3.479-7.756-7.756-7.756 H322.69c-4.277,0-7.756,3.479-7.756,7.756v55.516c-7.035-1.977-18.754-3.798-27.016-5.08c-2.729-0.424-4.969-0.771-6.346-1.021 c-5.807-1.057-39.393-13.745-42.437-14.897c-2.682-11.434-5.334-21.65-7.71-28.947c-10.129-31.11-19.598-46.536-48.936-55.703 c-0.522-0.163-1.02-1.246-1.372-2.584c3.529-0.26,15.195-1.574,20.37-7.735c6.343-7.551,5.239-19.003,5.189-19.486 c-0.004-0.033-0.022-0.06-0.029-0.092c0.635,0.095,1.274,0.157,1.915,0.157c5.081-0.001,10.188-2.914,13.45-7.824 c3.193-4.805,3.698-10.138,1.318-13.918c-1.602-2.543-3.711-4.106-6.268-4.647c-2.016-0.426-3.981-0.136-5.631,0.349 c1.712-4.583,5.212-17.75-3.503-33.117c-5.583-9.844-17.321-17.352-32.204-20.597c-17.316-3.776-35.59-1.095-46.561,6.83 c-24.566,17.742-17.225,42.49-12.839,57.277l0.375,1.268c-0.261,0.097-0.521,0.202-0.778,0.324c-2.274,1.085-3.888,3.002-4.794,5.7 c-1.454,4.332,0.277,9.527,4.518,13.561c1.734,1.65,4.01,3.16,6.587,4.064c-2.374,4.232-7.243,4.093-7.458,4.099 c-0.332-0.033-0.706,0.172-0.895,0.481c-0.188,0.312-0.193,0.7-0.013,1.016c6.631,11.55,25.618,13.365,34.997,13.533 c-0.324,0.098-0.625,0.191-0.968,0.294c-7.485,2.263-18.798,5.683-30.494,12.524c-6.441,3.767-27.755,17.328-32.367,20.267 c-5.894-16.644-14.416-40.41-17.969-48.849c-4.582-10.882-18.011-19.667-25.542-21.58c-2.416-0.611-4.161-0.51-5.185,0.307 c-0.693,0.555-1.087,1.346-1.139,2.287c-0.158,2.851,2.969,7.007,5.248,9.637c-4.626-1.266-14.032-4.53-25.41-12.238 c-4.504-3.052-7.732-2.536-9.646-1.565c-3.215,1.63-5.178,5.839-5.388,11.548c-0.298,8.128,7.065,20.068,15.186,28.123 c0.335,0.431,0.663,0.83,0.972,1.156c0.144,0.152,0.327,0.229,0.517,0.27c1.736,1.601,3.486,3.024,5.186,4.157 c8.964,5.976,16.403,7.534,18.879,7.908c0.463,7.454,4.26,58.417,22.273,72.881c3.177,2.551,6.644,3.835,10.337,3.835 c0.91,0,1.834-0.078,2.77-0.234c23.123-3.853,45.581-16.143,51.151-19.348c0.252,11.489,2.111,96.162,2.809,117.771 c0.016,0.5,0.4,0.912,0.898,0.961c2.54,0.257,5.159,0.444,7.813,0.599c-2.838,24.836-20.317,187.529-20.744,191.501 c-0.002,0.011-0.009,0.019-0.01,0.031l-4.25,37.086c-0.054,0.469,0.228,0.912,0.676,1.061c0.151,0.053,15.394,5.113,32.579,7.176 c7.418,0.891,17.312,1.814,26.439,1.814c10.875,0,20.662-1.311,23.874-5.549c1.395-1.84,1.564-4.07,0.504-6.627 c-5.536-13.354-36.352-22.25-42.262-23.846c0.335-1.582,1.053-5.04,1.864-9.331l8.612,0.138c0.493-0.094,0.891-0.32,0.992-0.785 c0.15-0.686,15.097-68.676,18.075-83.572c0.765-3.822,1.96-11.332,3.343-20.027c3.181-19.986,9.764-61.357,13.307-64.023 c0.771,0.488,4.045,4.273,13.309,32.932c5.579,17.26,10.717,35.523,12.135,41.551c2.869,12.193,11.366,87.535,11.99,93.092 c-0.003,0.034-0.02,0.064-0.02,0.1l0.15,36.393c0.002,0.426,0.273,0.805,0.676,0.941c0.133,0.047,13.434,4.553,30.623,6.615 c7.416,0.891,17.309,1.814,26.436,1.814c10.877,0,20.666-1.312,23.879-5.551c1.395-1.84,1.564-4.068,0.504-6.627 c-5.584-13.465-36.873-22.398-42.406-23.883l0.369-8.594h6.371c0.268,0,0.523-0.107,0.713-0.297 c0.188-0.191,0.291-0.449,0.287-0.717c-0.005-0.37-0.245-17.101-0.912-38.255c0.004-0.034,0.02-0.064,0.02-0.099v-189.69h176.211 v262.528c0,0.553,0.447,1,1,1h9.789c0.553,0,1-0.447,1-1V265.323h2.787c3.652,0,6.623-2.972,6.623-6.624v-2.662 C483.333,252.384,480.362,249.412,476.71,249.412z M287.752,249.412h-20.405c-3.652,0-6.625,2.972-6.625,6.624v2.662 c0,3.652,2.973,6.624,6.625,6.624h6.787v80.062c-5.163-20.77-11.412-41.459-14.461-51.547c-0.975-3.23-1.75-5.799-1.848-6.258 c-0.016-0.204-0.103-0.387-0.228-0.54c-0.987-5.474-5.237-28.837-10.463-54.397c9.337,2.341,27.904,6.82,43.775,9.599h-4.153 c-0.553,0-1,0.447-1,1v1.349C285.757,246.469,286.52,248.173,287.752,249.412z" fill="#010043"/></g><g><g id="change2_1"><path d="M181.479,82.422c-0.6,1.486-2.591,3.898-9.191,4.535c-6.172,0.592-12.005-1.948-14.872-3.469 c0.243-0.014,0.501-0.023,0.779-0.023c1.223,0,2.749,0.125,4.319,0.254c3.719,0.307,8.344,0.688,13.398,0.055 C178.067,83.505,179.904,82.971,181.479,82.422z" fill="#fff"/></g><g id="change3_1"><path d="M324.274,163.84v56.825c7.381,3.548,17.088,8.879,19.335,13.293h90.1V163.84H324.274z M339.665,177.931 l-4.439,2.304l4.439,2.32v3.128l-8.609-4.793v-1.312l8.609-4.759V177.931z M348.347,185.397c0.102-0.808,0.135-1.514,0.135-2.539 v-3.447c0-0.673-0.066-0.976-0.268-1.261c-0.236-0.303-0.605-0.454-1.076-0.454c-0.959,0-1.867,0.639-2.539,1.748v3.414 c0,0.958,0.033,1.664,0.133,2.539h-3.48c0.102-0.79,0.135-1.497,0.135-2.539v-8.912c0-1.16-0.033-1.884-0.135-2.539h3.48 c-0.1,0.739-0.133,1.345-0.133,2.539v1.782c0,0.135-0.018,0.403-0.018,0.555c1.01-0.975,2.068-1.396,3.498-1.396 c1.143,0,2.051,0.319,2.674,0.941c0.672,0.673,0.957,1.497,0.957,2.825v4.221c0,0.976,0.051,1.816,0.135,2.522H348.347z M358.278,185.683c-1.145,0-1.934-0.186-2.473-0.589c-0.639-0.487-0.875-1.06-0.875-2.203v-5.146h-0.639 c-0.537,0-0.975,0.034-1.463,0.102v-2.809c0.488,0.067,0.908,0.101,1.498,0.101h0.604v-0.353c0-0.841-0.033-1.514-0.133-2.304h3.43 c-0.084,0.689-0.135,1.496-0.135,2.304v0.353h0.605c0.74,0,1.127-0.017,1.648-0.084v2.792c-0.506-0.067-0.941-0.102-1.547-0.102 h-0.707v4.305c0,0.471,0.084,0.706,0.303,0.857c0.186,0.118,0.453,0.186,0.773,0.186c0.438,0,0.756-0.084,1.178-0.303l0.252,2.556 C359.841,185.581,359.186,185.683,358.278,185.683z M374.829,185.397c0.102-0.79,0.135-1.396,0.135-2.539v-3.464 c0-1.262-0.369-1.749-1.328-1.749c-0.857,0-1.631,0.673-2.051,1.799v3.431c0,1.009,0.033,1.715,0.135,2.522h-3.498 c0.102-0.757,0.135-1.463,0.135-2.539v-3.464c0-0.707-0.068-1.026-0.287-1.312c-0.184-0.27-0.52-0.421-0.924-0.421 c-0.908,0-1.682,0.656-2.152,1.8v3.396c0,1.06,0.033,1.715,0.135,2.539h-3.465c0.102-0.773,0.135-1.479,0.135-2.539v-5.18 c0-1.277-0.033-1.883-0.135-2.539h3.33v0.707c0,0.066,0,0.066-0.018,0.235c0,0,0,0.033,0,0.084c0,0.017,0,0.05,0,0.084 c0.857-0.941,1.885-1.379,3.213-1.379c0.873,0,1.598,0.201,2.152,0.605c0.303,0.219,0.471,0.42,0.689,0.841 c1.043-1.026,2.068-1.463,3.531-1.463c2.404,0,3.631,1.312,3.631,3.851v4.17c0,1.043,0.035,1.732,0.135,2.522H374.829z M383.603,185.397h-3.516c0.102-0.757,0.135-1.329,0.135-2.539v-8.912c0-1.194-0.033-1.9-0.135-2.539h3.516 c-0.102,0.706-0.135,1.396-0.135,2.539v8.912C383.468,183.867,383.501,184.505,383.603,185.397z M393.78,180.89l-8.609,4.793 v-3.128l4.439-2.32l-4.439-2.304v-3.111l8.609,4.759V180.89z M405.04,188.44h-2.859v-17.033h2.859V188.44z M229.524,167.503 c9.804,30.111,24.375,110.279,26.143,120.105c-32.914,5.835-79.083,12.943-115.525,11.02c-0.038-0.009-0.07-0.031-0.11-0.036 c-0.081-0.008-0.157,0.012-0.235,0.022c-2.631-0.143-5.219-0.325-7.738-0.567c-0.767-24.498-2.787-117.216-2.808-118.161 c-0.005-0.243-0.104-0.449-0.25-0.615c-0.023-0.067-0.034-0.137-0.073-0.2c-0.289-0.472-0.903-0.619-1.375-0.332 c-0.118,0.072-5.713,3.459-14.307,7.491c0.003-0.093,0.009-0.186-0.016-0.28c-4.881-18.602-11.202-31.129-22.393-44.342 c8.06-5.119,22.495-14.25,27.578-17.223c11.492-6.722,22.668-10.101,30.063-12.337c1.499-0.453,2.828-0.855,3.953-1.224 c0.295-0.096,0.556-0.211,0.819-0.325c1.135,0.636,17.948,9.981,26.35,9.981c0.124,0,0.247-0.002,0.367-0.007 c2.665-0.092,4.351-0.891,5.012-2.374c0.586-1.317,0.181-2.844-0.418-4.104C210.935,123.01,219.94,138.063,229.524,167.503z" fill="#ade1da"/></g><g id="change4_1"><path d="M196.02,527.81c0.78,1.881,0.698,3.402-0.25,4.654c-3.875,5.115-21.544,6.191-48.481,2.957 c-14.793-1.775-28.13-5.801-31.413-6.84l1.91-16.672l23.683,4.061c0.056,0.01,0.112,0.014,0.168,0.014 c0.206,0,0.409-0.064,0.579-0.186c0.217-0.152,0.363-0.387,0.408-0.648c0.008-0.045,0.792-4.52,3.58-6.895 c3.503-2.983,7.529-3.297,8.121-3.327c0.581,0.153,2.87,0.769,6.096,1.785c-3.628,0.863-8.464,3.054-11.05,8.657 c-0.231,0.502-0.013,1.096,0.489,1.328c0.136,0.062,0.278,0.092,0.418,0.092c0.378,0,0.74-0.215,0.909-0.58 c3.535-7.661,12.024-8.074,13.568-8.068c0.864,0.298,1.759,0.615,2.677,0.95c-3.374,0.853-8.095,3.065-10.765,8.848 c-0.231,0.502-0.013,1.096,0.489,1.328c0.136,0.062,0.278,0.092,0.418,0.092c0.378,0,0.74-0.215,0.909-0.58 c3.748-8.123,12.147-8.21,12.792-8.227c1.34,0.532,2.703,1.1,4.067,1.697c-3.65,0.678-8.929,2.684-11.647,8.571 c-0.231,0.502-0.013,1.096,0.489,1.328c0.136,0.062,0.278,0.092,0.418,0.092c0.378,0,0.74-0.215,0.909-0.58 c3.557-7.709,12.021-7.791,13.427-7.756C186.669,517.646,193.771,522.385,196.02,527.81z M464.134,526.851h7.789V265.323h-7.789 V526.851z M283.923,410.192V265.323h-7.789v88.355c2.126,9.133,3.926,18.006,5.025,25.704 C282.275,387.191,283.185,398.141,283.923,410.192z M302.293,513.59c-0.009-0.001-0.017,0.004-0.027,0.003 c-0.389-0.02-9.336-0.363-13.141,7.883c-0.17,0.365-0.531,0.58-0.908,0.58c-0.141,0-0.283-0.029-0.42-0.092 c-0.5-0.232-0.719-0.826-0.488-1.328c2.736-5.928,7.885-7.982,11.393-8.686c-1.282-0.558-2.562-1.088-3.821-1.587 c-1.261,0.045-9.201,0.472-12.782,8.23c-0.168,0.367-0.531,0.582-0.908,0.582c-0.141,0-0.283-0.029-0.418-0.092 c-0.502-0.232-0.721-0.826-0.49-1.326c2.658-5.762,7.375-7.984,10.774-8.848c-1.203-0.439-2.362-0.845-3.466-1.219 c-0.031,0.003-0.058,0.018-0.089,0.018c-0.008-0.002-0.012-0.002-0.02,0c-0.527,0-8.904,0.135-12.68,8.314 c-0.17,0.365-0.531,0.58-0.908,0.58c-0.141,0-0.283-0.029-0.42-0.092c-0.5-0.232-0.719-0.826-0.488-1.328 c2.615-5.663,7.136-7.929,10.447-8.845c-2.906-0.903-4.948-1.453-5.492-1.596c-0.589,0.03-4.618,0.341-8.123,3.328 c-2.787,2.373-3.572,6.848-3.58,6.893c-0.045,0.262-0.191,0.496-0.408,0.648c-0.17,0.121-0.373,0.186-0.578,0.186 c-0.057,0-0.113-0.004-0.17-0.014l-23.792-4.079l0.071,17.23c2.891,0.926,14.752,4.527,29.541,6.303 c26.938,3.234,44.609,2.154,48.482-2.959c0.947-1.252,1.029-2.773,0.25-4.654C317.359,522.136,310.122,517.35,302.293,513.59z M476.71,251.412h-34.459c-0.054,0.009-0.103,0.032-0.16,0.032H292.622c-0.109,0-0.211-0.027-0.319-0.032h-24.956 c-2.551,0-4.625,2.074-4.625,4.624v2.662c0,2.55,2.074,4.624,4.625,4.624h7.787h9.789h178.211h9.789h3.787 c2.549,0,4.623-2.074,4.623-4.624v-2.662C481.333,253.487,479.259,251.412,476.71,251.412z" fill="#f4b47e"/></g><g id="change5_1"><path d="M181.495,112.865c0.808,0.996,2.181,3.25,1.657,4.423c-0.314,0.705-1.47,1.127-3.252,1.188 c-6.694,0.217-20.676-7.026-24.64-9.159c0.822-0.653,1.299-1.274,1.517-1.594c2.833,0.63,5.751,0.975,8.722,0.975 c1.446,0,2.907-0.077,4.371-0.234l3.157-0.338c1.973-0.212,3.878-0.61,5.745-1.091 C179.009,108.789,179.693,111.897,181.495,112.865z M342.079,235.524c-0.682-3.722-12.596-10.495-24.1-15.557 c-5.369-2.361-21.018-4.79-30.367-6.242c-2.75-0.427-5.01-0.777-6.398-1.029c-5.587-1.017-34.528-11.877-41.531-14.521 c2.383,10.289,4.776,21.444,7.006,32.292c21.544,5.428,43.982,10.111,57.488,11.774h0.027c0.017,0,0.031,0.009,0.047,0.01 c7.131,0.874,11.756,0.901,12.414-0.257c0.035-0.063,0.109-0.194,0.004-0.499c-0.994-2.853-11.252-7.898-17.484-10.409 c-0.459-0.185-0.713-0.675-0.602-1.155c0.113-0.48,0.564-0.798,1.051-0.77l17.129,1.318c0.119,0.009,0.234,0.039,0.342,0.089 c8.715,4.005,22.104,8.557,24.576,6.124C342.044,236.334,342.163,235.985,342.079,235.524z M216.651,57.008 c-4.074-0.863-8.218,1.889-8.259,1.918c-0.091,0.061-0.191,0.092-0.292,0.12l0.529,4.928c0.571,5.329,0.047,10.524-1.36,15.379 c5.804,0.695,10.656-3.194,13.08-6.843c2.751-4.14,3.245-8.64,1.291-11.744C220.338,58.698,218.659,57.433,216.651,57.008z M310.165,232.248c-0.124-0.078-0.222-0.18-0.298-0.294l-4.505-0.347c5.143,2.411,12.129,6.172,13.195,9.228 c0.169,0.484,0.194,0.957,0.106,1.405h4.308h0.156c0.058-0.045,0.107-0.098,0.176-0.13c0.736-0.346,0.824-0.729,0.852-0.855 c0.163-0.718-0.443-1.697-0.739-2.086C317.781,236.942,311.208,232.899,310.165,232.248z M316.433,232.459l-2.321-0.178 c5.61,3.244,13.06,6.899,15.623,6.314c0.223-0.052,0.51-0.152,0.605-0.343c0.065-0.128,0.065-0.309,0.041-0.481 C324.531,236.061,318.552,233.428,316.433,232.459z M89.135,142.691c-1.588,1.01-2.782,1.77-3.411,2.171 c3.136,8.869,5.38,15.295,5.444,15.478c0.182,0.521-0.094,1.092-0.615,1.273c-0.514,0.184-1.091-0.093-1.273-0.615 c-0.184-0.525-18.42-52.766-24.053-66.146c-4.333-10.29-17.054-18.604-24.19-20.417c-1.975-0.5-3.073-0.365-3.442-0.069 c-0.25,0.199-0.371,0.457-0.393,0.835c-0.139,2.5,4.158,7.783,6.899,10.526c0.306,0.306,0.38,0.772,0.186,1.158 c-0.195,0.385-0.611,0.604-1.043,0.537c-0.512-0.077-12.729-2.037-29.321-13.277c-2.926-1.982-5.561-2.482-7.621-1.438 c-0.887,0.45-1.647,1.194-2.279,2.162c0.298-0.076,0.61-0.13,0.94-0.151c7.127-0.408,20.385,13.119,20.946,13.696 c0.385,0.396,0.375,1.029-0.021,1.414c-0.194,0.188-0.445,0.282-0.696,0.282c-0.261,0-0.521-0.102-0.718-0.304 c-3.645-3.753-14.203-13.341-19.384-13.093c-0.817,0.053-1.406,0.354-1.854,0.949c-0.145,0.195-0.351,0.308-0.57,0.361 c-0.17,0.62-0.305,1.284-0.411,1.985c0.784-0.415,1.672-0.636,2.654-0.636c0.002,0,0.004,0,0.007,0 c5.64,0.006,13.007,6.922,17.37,13.751c0.097,0.152,0.132,0.32,0.14,0.488c1.913,2.757,3.399,5.382,4.1,6.683 c3.953-0.758,21.867-3.403,31.564,8.53c0.348,0.429,0.283,1.059-0.146,1.407c-0.43,0.35-1.059,0.281-1.407-0.146 c-9.918-12.209-30.118-7.734-30.319-7.687c-0.446,0.098-0.901-0.109-1.112-0.514c-3.481-6.71-10.605-16.874-14.883-15.566 c-0.413,0.125-0.997,0.424-1.296,1.555c-1.269,4.8,4.078,16.908,8.048,21.756c1.938,1.859,3.962,3.521,6.004,4.882 c10.373,6.916,18.72,7.681,18.803,7.688c0.498,0.041,0.89,0.444,0.916,0.943c0.03,0.574,3.235,57.536,21.577,72.262 c3.496,2.808,7.373,3.878,11.525,3.188c13.195-2.199,26.177-7.191,35.841-11.619c-0.16-0.129-0.288-0.302-0.344-0.516 C106.472,168.074,100.228,155.736,89.135,142.691z M241.281,509.671l23.2,3.979c0.422-1.646,1.541-4.977,4.039-7.104 c3.266-2.78,6.882-3.531,8.559-3.734l0.361-8.432h-36.222L241.281,509.671z M6.993,87.364c0.511-1.934,1.722-2.675,2.647-2.957 c0.654-0.196,1.323-0.2,1.997-0.114c-2.463-1.835-4.835-2.917-6.725-2.919c-0.002,0-0.004,0-0.005,0 c-1.241,0-2.182,0.495-2.891,1.467c-0.055,5.063,3.23,12.264,8.066,18.87C7.748,96.513,6.095,90.761,6.993,87.364z M118.014,509.918l22.855,3.919c0.422-1.646,1.542-4.977,4.039-7.105c3.378-2.875,7.106-3.574,8.699-3.747 c0.299-1.405,1.011-4.815,1.833-9.15l-35.517-0.569L118.014,509.918z M206.642,64.187c2.239,20.892-12.936,39.711-33.827,41.951 l-3.157,0.338c-14.538,1.569-28.431-5.147-36.266-17.501c-0.295-0.467-0.912-0.606-1.38-0.31c-0.028,0.018-0.043,0.046-0.069,0.066 c-0.168-0.025-0.341-0.024-0.51,0.042c-5.558,2.182-11.083-0.416-14.404-3.575c-3.616-3.438-5.187-7.942-4-11.475 c0.726-2.161,1.987-3.685,3.75-4.527c3.805-1.817,8.789-0.014,8.839,0.006c0.522,0.189,1.093-0.072,1.285-0.59 c0.015-0.04,0.01-0.081,0.019-0.122c0.007-0.011,0.02-0.015,0.026-0.026c0.575-0.996,11.84-20.528,17.027-32.945 c-0.043,3.449,0.136,7.3,0.977,9.402c0.235,0.589,0.719,0.979,1.326,1.072c3.136,0.43,12.329-9.736,18.541-17.114 c-1.313,3.783-2.906,8.56-3.381,10.775c-0.149,0.697,0.097,1.304,0.657,1.624c2.992,1.705,21.831-10.532,26.743-14.22 l17.211,31.687c0.002,0.004,0.007,0.007,0.009,0.011L206.642,64.187z M171.761,71.485c1.509,0.532,2.417,1.174,2.701,1.908 c0.276,0.716,0.045,1.743-0.708,3.142c-0.262,0.486-0.079,1.093,0.407,1.354c0.15,0.081,0.312,0.119,0.473,0.119 c0.356,0,0.701-0.19,0.882-0.526c0.667-1.239,1.478-3.087,0.812-4.81c-0.511-1.322-1.787-2.328-3.9-3.074 c-0.521-0.182-1.092,0.091-1.276,0.61C170.967,70.73,171.24,71.3,171.761,71.485z M157.124,49.971 c0.503,0.235,1.095,0.015,1.327-0.484c0.233-0.5,0.018-1.096-0.483-1.329c-0.077-0.037-7.735-3.48-13.922,4.69 c-0.334,0.439-0.247,1.067,0.193,1.4c0.181,0.137,0.393,0.203,0.603,0.203c0.303,0,0.602-0.137,0.798-0.396 C150.819,47.222,156.85,49.846,157.124,49.971z M154.331,74.697c2.621-0.194,4.445-4.421,4.075-9.441 c-0.371-5.021-2.796-8.933-5.417-8.74c-2.621,0.194-4.445,4.42-4.074,9.441S151.71,74.891,154.331,74.697z M187.868,81.183 c0-1.798-0.702-2.292-1.291-2.39c-0.856-0.148-1.891,0.267-3.455,0.886c-1.841,0.728-4.361,1.724-7.457,2.11 c-4.849,0.604-9.361,0.233-12.986-0.063c-4.05-0.334-6.765-0.543-8.201,0.672c-0.019,0.011-0.034,0.027-0.052,0.04 c-0.04,0.036-0.091,0.06-0.129,0.099c-0.468,0.468-1.087,1.577,0.03,3.747c2.052,3.987,8.519,9.075,16.717,9.075 c1.07-0.001,2.171-0.087,3.293-0.274C185.385,93.243,187.869,84.204,187.868,81.183z M188.324,63.046 c-0.371-5.021-2.796-8.933-5.417-8.74c-2.621,0.194-4.445,4.42-4.075,9.441c0.371,5.02,2.796,8.933,5.417,8.74 S188.695,68.067,188.324,63.046z M191.487,50.021c-6.761-7.705-14.149-3.72-14.223-3.679c-0.482,0.269-0.656,0.877-0.387,1.359 c0.269,0.483,0.879,0.654,1.359,0.387c0.061-0.033,6.04-3.253,11.746,3.251c0.198,0.226,0.475,0.341,0.752,0.341 c0.234,0,0.47-0.082,0.659-0.248C191.81,51.068,191.852,50.436,191.487,50.021z" fill="#f4d1c5"/></g></g></svg>